<svg width="219" height="27" viewBox="0 0 219 27" fill="none" xmlns="http://www.w3.org/2000/svg">
<path d="M1.36 7.8H5.52C6.77867 7.8 7.77067 7.98133 8.496 8.344C9.232 8.70667 9.76 9.29333 10.08 10.104C10.4107 10.904 10.576 12.0027 10.576 13.4C10.576 14.7973 10.4107 15.9013 10.08 16.712C9.76 17.512 9.232 18.0933 8.496 18.456C7.77067 18.8187 6.77867 19 5.52 19H1.36V7.8ZM5.52 17.24C6.224 17.24 6.77867 17.1173 7.184 16.872C7.58933 16.6267 7.87733 16.2267 8.048 15.672C8.22933 15.1173 8.32 14.36 8.32 13.4C8.32 12.44 8.22933 11.6827 8.048 11.128C7.87733 10.5733 7.58933 10.1733 7.184 9.928C6.77867 9.68267 6.224 9.56 5.52 9.56H3.616V17.24H5.52ZM16.207 19C14.7883 19 13.7697 18.7013 13.151 18.104C12.5323 17.5067 12.223 16.6427 12.223 15.512V11.288C12.223 10.1573 12.5323 9.29333 13.151 8.696C13.7697 8.09867 14.7883 7.8 16.207 7.8H19.951V9.56H16.207C15.6203 9.56 15.183 9.69867 14.895 9.976C14.6177 10.2533 14.479 10.6907 14.479 11.288V12.52H19.247V14.28H14.479V15.512C14.479 16.0987 14.6177 16.536 14.895 16.824C15.183 17.1013 15.6203 17.24 16.207 17.24H19.983V19H16.207ZM25.4269 19.192C24.6589 19.192 24.0135 19.1067 23.4909 18.936C22.9789 18.7653 22.5469 18.5307 22.1949 18.232C21.8429 17.9333 21.4802 17.5333 21.1069 17.032L22.6269 15.768C23.0642 16.376 23.4855 16.808 23.8909 17.064C24.3069 17.3093 24.8189 17.432 25.4269 17.432C26.2695 17.432 26.8829 17.3093 27.2669 17.064C27.6509 16.8187 27.8429 16.424 27.8429 15.88C27.8429 15.6027 27.7522 15.3787 27.5709 15.208C27.3895 15.0267 27.0749 14.8613 26.6269 14.712C26.1895 14.5627 25.5335 14.3973 24.6589 14.216C23.6349 14.0027 22.8722 13.624 22.3709 13.08C21.8802 12.5253 21.6349 11.7893 21.6349 10.872C21.6349 10.2107 21.8002 9.63467 22.1309 9.144C22.4722 8.65333 22.9522 8.27467 23.5709 8.008C24.1895 7.74133 24.9095 7.608 25.7309 7.608C26.7975 7.608 27.6455 7.768 28.2749 8.088C28.9042 8.39733 29.4162 8.856 29.8109 9.464L28.3229 10.68C27.9922 10.3493 27.7149 10.0987 27.4909 9.928C27.2775 9.74667 27.0322 9.608 26.7549 9.512C26.4775 9.416 26.1362 9.368 25.7309 9.368C25.1229 9.368 24.6642 9.50133 24.3549 9.768C24.0455 10.0347 23.8909 10.4187 23.8909 10.92C23.8909 11.3893 24.0882 11.736 24.4829 11.96C24.8775 12.1733 25.3842 12.3493 26.0029 12.488C26.9202 12.68 27.6509 12.8773 28.1949 13.08C28.7389 13.2827 29.1922 13.608 29.5549 14.056C29.9175 14.504 30.0989 15.1173 30.0989 15.896C30.0989 17.0053 29.7095 17.832 28.9309 18.376C28.1629 18.92 26.9949 19.192 25.4269 19.192ZM32.0475 7.8H34.3035V19H32.0475V7.8ZM41.2403 19.192C39.7149 19.192 38.5469 18.8507 37.7363 18.168C36.9363 17.4747 36.5363 16.456 36.5363 15.112V11.688C36.5363 10.344 36.9363 9.33067 37.7363 8.648C38.5469 7.95467 39.7149 7.608 41.2403 7.608C42.3389 7.608 43.2349 7.784 43.9283 8.136C44.6323 8.488 45.1869 9.01067 45.5923 9.704L43.8802 10.872C43.5496 10.3387 43.1976 9.95467 42.8243 9.72C42.4509 9.48533 41.9229 9.368 41.2403 9.368C40.3869 9.368 39.7629 9.56533 39.3683 9.96C38.9843 10.344 38.7923 10.92 38.7923 11.688V15.112C38.7923 15.88 38.9843 16.4613 39.3683 16.856C39.7629 17.24 40.3869 17.432 41.2403 17.432C41.9869 17.432 42.5523 17.3093 42.9363 17.064C43.3309 16.808 43.5283 16.44 43.5283 15.96V15.464C43.5283 14.8027 43.2243 14.472 42.6163 14.472H40.7923V12.712H43.2563C44.1096 12.712 44.7389 12.9093 45.1443 13.304C45.5496 13.6987 45.7523 14.312 45.7523 15.144V16.12C45.7523 17.08 45.3469 17.832 44.5363 18.376C43.7256 18.92 42.6269 19.192 41.2403 19.192ZM57.0135 7.8V16.36C57.0135 17.224 56.8375 17.88 56.4855 18.328C56.1335 18.776 55.5682 19 54.7895 19H53.2055L49.9095 11.368V19H47.7975V7.8H50.3415L54.4055 17.08H54.4375C54.6188 17.08 54.7415 17.0053 54.8055 16.856C54.8695 16.696 54.9015 16.4133 54.9015 16.008V7.8H57.0135ZM64.0319 7.8H68.9599C70.1332 7.8 71.0292 8.056 71.6479 8.568C72.2772 9.08 72.5919 9.82133 72.5919 10.792C72.5919 11.3253 72.4319 11.8053 72.1119 12.232C71.7919 12.6587 71.3279 12.952 70.7199 13.112C71.3812 13.24 71.9145 13.5493 72.3199 14.04C72.7252 14.52 72.9279 15.1493 72.9279 15.928C72.9279 16.8773 72.5919 17.6293 71.9199 18.184C71.2585 18.728 70.3519 19 69.1999 19H64.0319V7.8ZM68.9119 12.312C69.3385 12.312 69.6799 12.1893 69.9359 11.944C70.2025 11.688 70.3359 11.352 70.3359 10.936C70.3359 10.52 70.2025 10.1893 69.9359 9.944C69.6799 9.688 69.3385 9.56 68.9119 9.56H66.2879V12.312H68.9119ZM68.7199 17.24C69.3812 17.24 69.8719 17.112 70.1919 16.856C70.5119 16.5893 70.6719 16.1893 70.6719 15.656C70.6719 15.1227 70.5119 14.728 70.1919 14.472C69.8719 14.2053 69.3812 14.072 68.7199 14.072H66.2879V17.24H68.7199ZM76.8363 14.2L73.1562 7.8H75.6683L78.0203 12.136L80.3243 7.8H82.8523L79.0923 14.2V19H76.8363V14.2Z" fill="#A3A9BD"/>
<path d="M105.22 18.9C105.007 19.1933 104.7 19.34 104.3 19.34C104.193 19.34 104.087 19.3267 103.98 19.3C103.687 18.6333 103.467 17.6933 103.32 16.48C103.187 15.2533 103.087 14.4467 103.02 14.06C101.567 14.0067 100.113 13.98 98.66 13.98C97.2067 13.98 95.9067 14.04 94.76 14.16C94.64 14.7067 94.5067 15.5267 94.36 16.62C94.2267 17.7 94.1267 18.4267 94.06 18.8C93.58 19.1867 93.1467 19.24 92.76 18.96C92.8 18.64 92.86 18.1333 92.94 17.44C93.02 16.7467 93.0867 16.16 93.14 15.68C93.2067 15.1867 93.3 14.5667 93.42 13.82C93.54 13.0733 93.6533 12.4333 93.76 11.9C93.88 11.3533 94.04 10.7467 94.24 10.08C94.44 9.4 94.6467 8.82 94.86 8.34C95.0733 7.86 95.3333 7.37333 95.64 6.88C95.96 6.38667 96.3 5.98667 96.66 5.68C97.4867 5 98.3867 4.66 99.36 4.66C100.333 4.66 101.14 5.03333 101.78 5.78C102.433 6.52667 102.927 7.50667 103.26 8.72C103.593 9.93333 103.86 11.1533 104.06 12.38C104.26 13.6067 104.453 14.86 104.64 16.14C104.827 17.42 105.02 18.34 105.22 18.9ZM101.5 7.8C101.247 7.14667 100.92 6.64 100.52 6.28C100.12 5.90667 99.6267 5.72 99.04 5.72C98.4533 5.72 97.8867 6.00667 97.34 6.58C96.7933 7.15333 96.36 7.86667 96.04 8.72C95.4667 10.3067 95.1067 11.7733 94.96 13.12C96.2933 12.9733 97.6333 12.9 98.98 12.9C100.327 12.9 101.627 12.94 102.88 13.02C102.827 12.82 102.727 12.3467 102.58 11.6C102.433 10.8533 102.28 10.2 102.12 9.64C101.973 9.06667 101.767 8.45333 101.5 7.8ZM115.17 18.44C114.93 18.6933 114.656 18.82 114.35 18.82C113.776 18.82 113.35 18.5133 113.07 17.9C112.79 17.2867 112.623 16.54 112.57 15.66C112.53 14.78 112.503 13.9 112.49 13.02C112.476 12.14 112.403 11.3933 112.27 10.78C112.15 10.1667 111.916 9.86 111.57 9.86C111.103 9.86 110.703 10.28 110.37 11.12C110.05 11.96 109.823 12.8933 109.69 13.92C109.316 16.7867 108.956 18.3933 108.61 18.74C108.37 18.86 108.163 18.92 107.99 18.92C107.816 18.92 107.67 18.9 107.55 18.86C107.27 17.6333 107.09 15.52 107.01 12.52C106.983 11.0267 106.956 10.06 106.93 9.62C107.21 9.43333 107.45 9.34 107.65 9.34C107.85 9.34 108.01 9.36 108.13 9.4C108.196 9.97333 108.23 11.1467 108.23 12.92C108.243 14.6933 108.256 15.7133 108.27 15.98C108.336 15.7 108.416 15.2467 108.51 14.62C108.616 13.9933 108.71 13.48 108.79 13.08C108.87 12.6667 108.996 12.1867 109.17 11.64C109.343 11.0933 109.536 10.66 109.75 10.34C109.963 10.0067 110.256 9.72667 110.63 9.5C111.003 9.26 111.423 9.14 111.89 9.14C112.516 9.14 112.97 9.42667 113.25 10C113.543 10.56 113.703 11.26 113.73 12.1C113.756 12.94 113.77 13.7933 113.77 14.66C113.783 15.5267 113.89 16.32 114.09 17.04C114.303 17.76 114.663 18.2267 115.17 18.44ZM123.981 2.98C123.475 7.56667 123.221 10.84 123.221 12.8C123.221 14.7467 123.401 16.6933 123.761 18.64C123.495 18.9067 123.261 19.04 123.061 19.04C122.861 19.04 122.695 19.0133 122.561 18.96C122.281 17.9733 122.115 16.9 122.061 15.74C121.741 16.2467 121.501 16.6067 121.341 16.82C121.195 17.0333 120.935 17.3467 120.561 17.76C119.881 18.56 119.075 18.96 118.141 18.96C117.435 18.96 116.921 18.6333 116.601 17.98C116.295 17.3133 116.141 16.4667 116.141 15.44C116.141 14.4 116.255 13.4133 116.481 12.48C116.721 11.5333 117.128 10.72 117.701 10.04C118.275 9.34667 118.981 9 119.821 9C120.328 9 120.795 9.10667 121.221 9.32C121.648 9.53333 121.941 9.82 122.101 10.18C122.128 9.82 122.155 9.26667 122.181 8.52C122.208 7.77333 122.235 7.11333 122.261 6.54C122.301 5.95333 122.361 5.36 122.441 4.76C122.588 3.48 122.915 2.84 123.421 2.84C123.595 2.84 123.781 2.88667 123.981 2.98ZM121.641 10.9C121.481 10.6067 121.261 10.3933 120.981 10.26C120.701 10.1133 120.328 10.04 119.861 10.04C119.408 10.04 118.981 10.3 118.581 10.82C117.795 11.8467 117.401 13.3333 117.401 15.28C117.401 15.9067 117.501 16.5333 117.701 17.16C117.901 17.7733 118.195 18.08 118.581 18.08C119.141 18.08 119.688 17.7133 120.221 16.98C120.755 16.2467 121.168 15.4067 121.461 14.46C121.755 13.5 121.901 12.64 121.901 11.88C121.901 11.52 121.815 11.1933 121.641 10.9ZM127.874 17.04L127.934 18.18C127.934 18.4733 127.848 18.68 127.674 18.8C127.514 18.9067 127.348 18.96 127.174 18.96C127.014 18.96 126.848 18.9333 126.674 18.88C126.381 17.3333 126.154 15.4067 125.994 13.1C125.848 10.7933 125.761 9.48667 125.734 9.18C125.934 8.99333 126.141 8.9 126.354 8.9C126.581 8.9 126.781 8.92667 126.954 8.98C127.008 9.36667 127.048 10.22 127.074 11.54C127.101 12.86 127.134 13.6867 127.174 14.02C127.361 12.9 127.694 11.8533 128.174 10.88C128.441 10.3333 128.788 9.9 129.214 9.58C129.654 9.24667 130.121 9.08 130.614 9.08C131.121 9.08 131.581 9.30667 131.994 9.76C132.421 10.2 132.634 10.6 132.634 10.96C132.634 11.0933 132.554 11.2 132.394 11.28C132.234 11.3467 132.054 11.38 131.854 11.38C131.668 11.38 131.521 11.3067 131.414 11.16C131.308 11.0133 131.234 10.8533 131.194 10.68C131.154 10.4933 131.068 10.3267 130.934 10.18C130.801 10.0333 130.621 9.96 130.394 9.96C129.794 9.96 129.281 10.5 128.854 11.58C128.201 13.1933 127.874 15.0133 127.874 17.04ZM134.571 14.94C134.544 15.2067 134.531 15.3867 134.531 15.48C134.531 16.28 134.771 16.9 135.251 17.34C135.744 17.78 136.324 18 136.991 18C137.658 18 138.198 17.9067 138.611 17.72C139.038 17.5333 139.344 17.3333 139.531 17.12C140.011 16.52 140.451 16.22 140.851 16.22C140.998 16.22 141.171 16.26 141.371 16.34C141.238 16.9933 140.731 17.5933 139.851 18.14C138.984 18.6733 137.891 18.94 136.571 18.94C135.638 18.94 134.831 18.6467 134.151 18.06C133.484 17.46 133.151 16.6467 133.151 15.62C133.151 14.5933 133.351 13.6 133.751 12.64C134.164 11.6667 134.751 10.84 135.511 10.16C136.284 9.46667 137.064 9.12 137.851 9.12C138.651 9.12 139.291 9.28667 139.771 9.62C140.264 9.94 140.511 10.4133 140.511 11.04C140.511 12.2 139.991 13.16 138.951 13.92C137.924 14.6667 136.831 15.04 135.671 15.04C135.364 15.04 134.998 15.0067 134.571 14.94ZM136.091 14.28C136.718 14.28 137.278 14.08 137.771 13.68C138.264 13.28 138.611 12.86 138.811 12.42C139.024 11.98 139.131 11.58 139.131 11.22C139.131 10.86 138.991 10.5467 138.711 10.28C138.431 10 138.104 9.86 137.731 9.86C137.064 9.86 136.444 10.32 135.871 11.24C135.311 12.16 134.911 13.1133 134.671 14.1C135.258 14.22 135.731 14.28 136.091 14.28ZM149.324 13.24L149.224 15.54C149.224 16.7 149.358 17.48 149.624 17.88C149.784 18.1467 150.004 18.28 150.284 18.28C150.364 18.28 150.478 18.26 150.624 18.22C150.904 18.14 151.138 18.18 151.324 18.34C151.231 18.8067 150.764 19.04 149.924 19.04C149.351 19.04 148.971 18.8 148.784 18.32C148.638 17.96 148.531 17.5133 148.464 16.98C148.398 16.4333 148.344 16.06 148.304 15.86C147.438 17.5133 146.598 18.52 145.784 18.88C145.371 19.0667 144.891 19.16 144.344 19.16C143.798 19.16 143.371 18.9 143.064 18.38C142.771 17.8467 142.624 17.0733 142.624 16.06C142.624 15.0467 142.791 13.9867 143.124 12.88C143.458 11.76 143.944 10.82 144.584 10.06C145.224 9.28667 145.924 8.9 146.684 8.9C147.778 8.9 148.504 9.35333 148.864 10.26C149.171 11.0333 149.324 12.0267 149.324 13.24ZM144.424 12.6C144.238 13.32 144.098 14.0067 144.004 14.66C143.911 15.3 143.864 15.8733 143.864 16.38C143.864 16.8733 143.964 17.3 144.164 17.66C144.378 18.02 144.651 18.2 144.984 18.2C145.704 18.2 146.398 17.52 147.064 16.16C147.731 14.8 148.064 13.5333 148.064 12.36C148.064 11.6 147.864 10.9733 147.464 10.48C147.198 10.16 146.844 10 146.404 10C145.978 10 145.584 10.2533 145.224 10.76C144.878 11.2533 144.611 11.8667 144.424 12.6ZM157.08 17.76L156.92 6.06C156.92 5.20667 158.647 4.78 162.1 4.78C163.727 4.78 165.087 5.08667 166.18 5.7C167.287 6.31333 167.84 7.19333 167.84 8.34C167.84 9.1 167.547 9.82 166.96 10.5C166.374 11.18 165.714 11.6133 164.98 11.8C165.9 12.08 166.694 12.4867 167.36 13.02C168.04 13.5533 168.38 14.2467 168.38 15.1C168.38 15.9533 168.014 16.7067 167.28 17.36C165.867 18.6 163.694 19.22 160.76 19.22C158.307 19.22 157.08 18.7333 157.08 17.76ZM158.38 11.86C159.207 11.54 160.12 11.38 161.12 11.38C161.587 11.38 162.054 11.38 162.52 11.38C163.227 11.38 164.08 11.0667 165.08 10.44C166.094 9.8 166.6 9.19333 166.6 8.62C166.6 7.76667 166.067 7.09333 165 6.6C163.934 6.09333 162.754 5.84 161.46 5.84C160.167 5.84 159.12 5.98667 158.32 6.28C158.32 6.52 158.32 6.87333 158.32 7.34C158.32 7.79333 158.327 8.55333 158.34 9.62C158.367 10.6733 158.38 11.42 158.38 11.86ZM166.92 15.1C166.92 13.94 165.667 13.0933 163.16 12.56C161.88 12.9333 160.667 13.12 159.52 13.12C159.147 13.12 158.78 13.1 158.42 13.06C158.46 14.6467 158.48 16.26 158.48 17.9C159.254 18.0733 160.034 18.16 160.82 18.16C161.62 18.16 162.327 18.1133 162.94 18.02C163.567 17.9133 164.187 17.7533 164.8 17.54C165.427 17.3267 165.934 17.0067 166.32 16.58C166.72 16.1533 166.92 15.66 166.92 15.1ZM172.066 9.62C171.719 10.2733 171.546 11.2467 171.546 12.54C171.546 14.4867 171.913 16.04 172.646 17.2C173.073 17.88 173.579 18.22 174.166 18.22C174.766 18.22 175.246 17.9067 175.606 17.28C176.033 16.5067 176.246 15.44 176.246 14.08C176.246 12.3733 176.006 11.1133 175.526 10.3C175.313 9.91333 175.186 9.63333 175.146 9.46C175.119 9.28667 175.166 9.16 175.286 9.08C175.406 9 175.606 8.96 175.886 8.96C176.699 8.96 177.233 9.8 177.486 11.48C177.566 11.9467 177.606 12.4133 177.606 12.88C177.606 14.0933 177.366 15.3067 176.886 16.52C176.206 18.1867 175.133 19.02 173.666 19.02C172.893 19.02 172.233 18.7333 171.686 18.16C170.659 17.0667 170.146 15.42 170.146 13.22C170.146 12.26 170.213 11.5267 170.346 11.02C170.479 10.5133 170.593 10.1867 170.686 10.04C170.779 9.88 170.893 9.73333 171.026 9.6C171.159 9.46667 171.306 9.41333 171.466 9.44C171.639 9.46667 171.839 9.52667 172.066 9.62ZM184.606 11C184.486 10.6933 184.26 10.4533 183.926 10.28C183.593 10.1067 183.18 10.02 182.686 10.02C182.193 10.02 181.726 10.1667 181.286 10.46C180.86 10.7533 180.646 11.1467 180.646 11.64C180.646 12.1333 180.846 12.5267 181.246 12.82C181.66 13.1 182.153 13.3133 182.726 13.46C183.313 13.6067 183.9 13.7667 184.486 13.94C185.073 14.1 185.566 14.3733 185.966 14.76C186.38 15.1333 186.586 15.6267 186.586 16.24C186.586 17.1333 186.213 17.8133 185.466 18.28C184.733 18.7467 183.846 18.98 182.806 18.98C182.193 18.98 181.386 18.8133 180.386 18.48C179.4 18.1467 178.906 17.7467 178.906 17.28C178.906 16.9333 179.2 16.76 179.786 16.76C179.96 16.76 180.186 16.8667 180.466 17.08C181.32 17.7067 182.193 18.02 183.086 18.02C183.566 18.02 183.98 17.94 184.326 17.78C184.966 17.4733 185.286 16.98 185.286 16.3C185.286 15.8867 185.08 15.5533 184.666 15.3C184.266 15.0467 183.773 14.8467 183.186 14.7C182.613 14.5533 182.033 14.3933 181.446 14.22C180.86 14.0467 180.36 13.76 179.946 13.36C179.546 12.9467 179.346 12.4267 179.346 11.8C179.346 10.9867 179.713 10.3267 180.446 9.82C181.18 9.31333 182.086 9.06 183.166 9.06C183.9 9.06 184.56 9.25333 185.146 9.64C185.746 10.0133 186.046 10.56 186.046 11.28C186.046 11.76 185.773 12 185.226 12C185 12 184.846 11.96 184.766 11.88C184.7 11.8 184.66 11.66 184.646 11.46C184.646 11.2467 184.633 11.0933 184.606 11ZM188.317 10.62C187.717 10.62 187.311 10.4733 187.097 10.18C187.097 9.96667 187.184 9.8 187.357 9.68C187.544 9.56 187.744 9.48667 187.957 9.46C188.171 9.42 188.517 9.38667 188.997 9.36C189.037 9 189.057 8.54 189.057 7.98C189.071 7.40667 189.084 6.92 189.097 6.52C189.137 5.46667 189.297 4.82 189.577 4.58C189.697 4.47333 189.824 4.42 189.957 4.42C190.104 4.42 190.231 4.43333 190.337 4.46C190.377 5.42 190.397 6 190.397 6.2L190.277 9.2C190.304 9.21333 190.377 9.22 190.497 9.22L191.937 9.16C192.977 9.16 193.497 9.32 193.497 9.64C193.497 10.0933 193.311 10.36 192.937 10.44C192.764 10.48 192.557 10.5 192.317 10.5C192.091 10.5 191.791 10.4733 191.417 10.42C191.057 10.3533 190.797 10.32 190.637 10.32C190.477 10.32 190.371 10.3267 190.317 10.34C190.277 10.7267 190.257 11.1133 190.257 11.5C190.257 11.8733 190.264 12.3467 190.277 12.92C190.304 13.48 190.357 14.1533 190.437 14.94C190.531 15.7267 190.724 16.4067 191.017 16.98C191.311 17.54 191.684 17.82 192.137 17.82C192.364 17.82 192.631 17.7333 192.937 17.56C193.244 17.3733 193.477 17.28 193.637 17.28C193.811 17.28 193.957 17.32 194.077 17.4C194.211 17.4667 194.277 17.5467 194.277 17.64C194.277 17.92 193.991 18.1933 193.417 18.46C192.857 18.7133 192.377 18.84 191.977 18.84C190.511 18.84 189.597 17.4533 189.237 14.68C189.131 13.88 189.051 12.5067 188.997 10.56C188.784 10.6 188.557 10.62 188.317 10.62ZM196.485 14.94C196.458 15.2067 196.445 15.3867 196.445 15.48C196.445 16.28 196.685 16.9 197.165 17.34C197.658 17.78 198.238 18 198.905 18C199.572 18 200.112 17.9067 200.525 17.72C200.952 17.5333 201.258 17.3333 201.445 17.12C201.925 16.52 202.365 16.22 202.765 16.22C202.912 16.22 203.085 16.26 203.285 16.34C203.152 16.9933 202.645 17.5933 201.765 18.14C200.898 18.6733 199.805 18.94 198.485 18.94C197.552 18.94 196.745 18.6467 196.065 18.06C195.398 17.46 195.065 16.6467 195.065 15.62C195.065 14.5933 195.265 13.6 195.665 12.64C196.078 11.6667 196.665 10.84 197.425 10.16C198.198 9.46667 198.978 9.12 199.765 9.12C200.565 9.12 201.205 9.28667 201.685 9.62C202.178 9.94 202.425 10.4133 202.425 11.04C202.425 12.2 201.905 13.16 200.865 13.92C199.838 14.6667 198.745 15.04 197.585 15.04C197.278 15.04 196.912 15.0067 196.485 14.94ZM198.005 14.28C198.632 14.28 199.192 14.08 199.685 13.68C200.178 13.28 200.525 12.86 200.725 12.42C200.938 11.98 201.045 11.58 201.045 11.22C201.045 10.86 200.905 10.5467 200.625 10.28C200.345 10 200.018 9.86 199.645 9.86C198.978 9.86 198.358 10.32 197.785 11.24C197.225 12.16 196.825 13.1133 196.585 14.1C197.172 14.22 197.645 14.28 198.005 14.28ZM205.578 7.04C205.578 5.72 205.398 4.83333 205.038 4.38C205.212 4.12667 205.512 4 205.938 4C206.018 4 206.105 4.00667 206.198 4.02C206.532 4.35333 206.698 5.32 206.698 6.92C206.698 7.78667 206.658 8.79333 206.578 9.94C206.418 11.94 206.338 13.4067 206.338 14.34C206.338 16.86 206.825 18.12 207.798 18.12C207.798 18.12 208.045 18.0733 208.538 17.98C208.658 17.98 208.758 18.0333 208.838 18.14C208.798 18.62 208.405 18.86 207.658 18.86C206.925 18.86 206.358 18.64 205.958 18.2C205.558 17.7467 205.305 17.1867 205.198 16.52C205.105 15.84 205.058 15.28 205.058 14.84C205.058 14.4 205.065 13.92 205.078 13.4C205.092 12.8667 205.152 12.1067 205.258 11.12C205.472 9.12 205.578 7.76 205.578 7.04ZM210.364 10.7C211.044 9.66 212.024 9.14 213.304 9.14C214.584 9.14 215.604 9.66 216.364 10.7C217.137 11.74 217.524 12.9267 217.524 14.26C217.524 15.58 217.104 16.7 216.264 17.62C215.424 18.54 214.357 19 213.064 19C211.771 19 210.831 18.64 210.244 17.92C209.657 17.1867 209.364 16.16 209.364 14.84C209.364 13.12 209.697 11.74 210.364 10.7ZM211.244 11.76C211.071 12.28 210.937 12.8 210.844 13.32C210.764 13.84 210.724 14.3267 210.724 14.78C210.724 15.22 210.757 15.6267 210.824 16C210.891 16.36 211.004 16.72 211.164 17.08C211.324 17.4267 211.564 17.7067 211.884 17.92C212.204 18.12 212.584 18.22 213.024 18.22C213.917 18.22 214.664 17.8533 215.264 17.12C215.877 16.3867 216.184 15.5 216.184 14.46C216.184 13.42 215.904 12.4133 215.344 11.44C214.797 10.4533 214.124 9.96 213.324 9.96C212.844 9.96 212.424 10.1267 212.064 10.46C211.704 10.7933 211.431 11.2267 211.244 11.76Z" fill="white"/>
</svg>
