<svg width="40" height="40" viewBox="0 0 40 40" fill="none" xmlns="http://www.w3.org/2000/svg">
<path d="M35.9295 7.55396C34.5818 8.2029 33.154 8.63127 31.6922 8.82526C33.2313 7.81355 34.3837 6.22695 34.9365 4.35847C33.5101 5.26889 31.9292 5.93161 30.2462 6.3007C29.1359 5.00221 27.6646 4.14099 26.0609 3.85077C24.4571 3.56055 22.8106 3.85758 21.377 4.69572C19.9434 5.53386 18.803 6.86622 18.1328 8.4859C17.4626 10.1056 17.3002 11.9219 17.6708 13.6529C11.536 13.3363 6.09875 10.1146 2.4599 5.24428C1.79812 6.47427 1.45294 7.87716 1.46094 9.30426C1.46094 12.1093 2.76588 14.5748 4.7428 16.0233C3.57114 15.9825 2.42536 15.6361 1.40094 15.0128V15.1129C1.40028 16.977 1.98932 18.784 3.06813 20.2272C4.14694 21.6705 5.64908 22.6611 7.3197 23.0311C6.23719 23.3483 5.10341 23.3959 4.00183 23.1705C4.47619 24.7747 5.39652 26.177 6.63445 27.1818C7.87238 28.1866 9.36619 28.7438 10.9075 28.7757C8.29689 31.0163 5.07348 32.2324 1.75493 32.2288C1.16995 32.2288 0.586476 32.191 0 32.1189C3.38342 34.4881 7.31747 35.7458 11.335 35.7425C24.9155 35.7425 32.3327 23.4461 32.3327 12.7999C32.3327 12.4571 32.3327 12.111 32.3102 11.7665C33.7591 10.6262 35.0089 9.21044 36 7.58676L35.9295 7.55396Z" fill="white"/>
</svg>
